<?xml version="1.0" standalone="no"?>
<!DOCTYPE svg PUBLIC "-//W3C//DTD SVG 20010904//EN"
 "http://www.w3.org/TR/2001/REC-SVG-20010904/DTD/svg10.dtd">
<svg version="1.0" xmlns="http://www.w3.org/2000/svg"
 width="1000.000000pt" height="1000.000000pt" viewBox="0 0 1000.000000 1000.000000"
 preserveAspectRatio="xMidYMid meet">
<metadata>
Created by potrace 1.11, written by Peter Selinger 2001-2013
</metadata>
<g transform="translate(0.000000,1000.000000) scale(0.100000,-0.100000)"
fill="#000000" stroke="none">
<path d="M1536 9503 c-13 -7 -31 -25 -41 -40 -18 -26 -18 -199 -18 -4436 0
-4401 0 -4408 20 -4435 11 -15 30 -32 42 -38 30 -15 2667 -16 2696 -1 32 16
55 48 56 76 1 14 3 249 4 521 1 272 3 502 4 510 1 13 62 15 494 13 270 -1 506
-2 523 -2 26 -1 34 -7 44 -33 7 -18 16 -42 20 -53 5 -11 27 -72 50 -135 22
-63 44 -124 49 -135 5 -11 20 -51 34 -90 23 -66 96 -266 113 -310 4 -11 8 -23
9 -27 2 -5 4 -11 5 -15 1 -5 2 -11 1 -16 0 -4 3 -7 9 -7 5 0 10 -6 10 -13 0
-14 75 -219 91 -249 25 -47 -25 -46 1466 -44 l1403 1 27 27 c48 48 40 79 -96
408 -68 162 -130 311 -139 330 -9 19 -17 37 -17 40 -1 3 -6 16 -12 30 -18 42
-36 85 -38 90 -1 3 -6 16 -12 30 -6 14 -21 50 -33 80 -12 30 -28 71 -37 90 -8
19 -19 44 -23 55 -4 11 -15 36 -23 55 -16 36 -39 91 -42 100 -1 3 -6 16 -12
30 -6 14 -27 64 -46 112 -20 48 -43 104 -52 125 -10 21 -21 47 -25 58 -4 11
-15 36 -23 55 -8 19 -31 76 -51 125 -20 50 -41 98 -46 107 -6 10 -10 25 -10
33 0 8 -3 15 -8 15 -4 0 -13 18 -19 39 -7 22 -23 64 -37 93 -13 29 -45 107
-71 173 -27 66 -52 124 -57 129 -4 6 -8 18 -8 28 0 10 -5 18 -12 18 -6 0 -9 3
-6 6 4 3 -4 29 -16 57 -28 65 -39 91 -40 97 -1 5 -84 202 -111 265 -21 50 -28
70 -27 78 1 4 -2 7 -8 7 -6 0 -9 3 -8 7 1 5 -6 25 -15 47 -9 21 -17 40 -17 42
0 6 -40 96 -56 127 -9 15 -13 27 -10 27 3 0 -6 24 -18 53 -33 72 -39 91 -38
100 1 4 -2 7 -8 7 -5 0 -10 6 -10 13 0 7 -23 67 -51 132 -53 126 -63 155 -50
155 4 0 57 44 117 98 214 190 407 405 529 592 16 25 34 50 40 55 5 6 16 21 22
35 7 14 26 48 43 75 40 67 81 143 79 151 0 4 3 10 8 13 12 8 93 188 93 206 0
8 4 15 8 15 5 0 9 6 9 13 0 6 10 35 21 63 12 29 18 55 15 58 -4 3 0 6 7 6 7 0
11 3 7 6 -3 4 0 23 8 43 25 63 76 283 90 386 3 23 8 52 10 65 8 42 18 200 19
302 1 54 5 98 9 98 5 0 5 5 1 11 -3 6 -8 61 -10 123 -2 61 -6 134 -9 161 -3
28 -8 66 -10 85 -8 83 -16 132 -41 260 -4 20 -44 191 -49 210 -1 3 -4 12 -7
20 -3 8 -20 60 -37 115 -18 55 -36 109 -41 120 -5 11 -23 54 -41 95 -56 133
-145 299 -227 425 -52 79 -146 205 -154 205 -4 0 -8 5 -8 11 0 35 -400 439
-478 483 -9 5 -26 18 -37 28 -11 11 -36 29 -55 41 -19 11 -37 23 -40 26 -8 9
-109 75 -175 114 -52 30 -297 155 -310 157 -3 0 -24 9 -47 19 -60 25 -278 102
-307 107 -13 3 -34 10 -45 16 -12 6 -22 11 -23 10 -2 -1 -4 -2 -5 -1 -2 0 -10
2 -18 4 -43 9 -69 15 -105 25 -52 13 -230 50 -275 56 -54 8 -83 13 -110 18
-14 3 -45 8 -70 11 -25 2 -65 7 -90 10 -223 26 -318 27 -2163 29 -1387 1
-1803 -2 -1821 -11z m3591 -206 c6 -4 14 -3 18 3 4 6 10 8 15 5 4 -3 48 -7 97
-10 49 -3 107 -8 129 -10 21 -3 66 -7 99 -10 93 -8 277 -35 345 -51 14 -3 35
-8 48 -10 30 -6 63 -12 87 -18 77 -17 122 -29 135 -33 18 -7 28 -10 55 -16 11
-2 27 -7 35 -10 8 -3 62 -21 120 -40 58 -20 119 -41 135 -48 17 -7 32 -13 35
-14 3 -1 19 -8 35 -15 17 -7 32 -14 35 -15 38 -10 277 -138 348 -186 24 -16
47 -29 51 -29 4 0 16 -9 26 -20 10 -11 24 -20 31 -20 7 0 14 -3 16 -8 2 -4 34
-31 72 -60 37 -30 77 -61 88 -70 40 -32 254 -247 295 -297 23 -27 54 -63 68
-80 38 -44 170 -235 192 -275 10 -19 21 -37 24 -40 3 -3 12 -18 21 -35 8 -16
30 -59 49 -95 57 -106 156 -348 173 -425 2 -5 8 -30 15 -55 7 -25 15 -52 17
-60 2 -8 10 -42 18 -75 46 -191 69 -404 70 -650 0 -205 -7 -311 -30 -439 -8
-44 -17 -97 -20 -116 -3 -19 -11 -56 -19 -82 -8 -27 -12 -48 -9 -48 3 0 2 -6
-3 -12 -4 -7 -8 -17 -10 -23 -8 -37 -13 -53 -24 -80 -6 -16 -13 -37 -14 -45
-2 -14 -41 -118 -68 -184 -30 -72 -139 -280 -176 -336 -23 -34 -41 -66 -41
-71 0 -5 -4 -9 -10 -9 -5 0 -10 -5 -10 -11 0 -6 -11 -25 -25 -43 -14 -17 -29
-36 -33 -41 -5 -6 -13 -17 -18 -26 -25 -44 -179 -223 -270 -313 -86 -87 -197
-186 -202 -181 -3 2 -5 423 -5 936 l0 931 -71 75 c-39 42 -105 110 -146 153
-41 43 -138 145 -215 226 -77 81 -174 182 -215 225 -41 42 -127 131 -190 198
-63 67 -160 168 -215 225 -55 57 -163 171 -240 252 -77 81 -169 177 -205 214
-36 37 -126 131 -200 210 -74 78 -157 165 -183 193 l-49 50 -1327 0 c-731 0
-1333 -3 -1338 -6 -6 -4 -9 -1166 -9 -3339 l1 -3333 766 -1 c422 -1 771 -4
776 -7 8 -5 10 -50 3 -67 -1 -3 -1 -9 0 -15 6 -18 5 -825 0 -826 -3 -1 -542
-3 -1197 -4 l-1193 -1 0 4275 0 4276 1712 0 c942 0 1718 -4 1725 -8z m-82
-1296 c13 -1 36 -23 155 -148 52 -55 169 -177 260 -272 91 -95 190 -198 220
-230 289 -303 396 -415 460 -482 74 -77 252 -264 390 -409 39 -41 114 -119
165 -173 l93 -97 0 -2085 0 -2084 -124 2 c-68 1 -124 -2 -124 -6 0 -5 -5 -5
-11 -1 -16 9 -109 11 -109 1 0 -5 -5 -5 -11 -1 -16 9 -109 11 -109 1 0 -5 -5
-5 -11 -1 -16 9 -109 11 -109 1 0 -5 -5 -5 -11 -2 -15 10 -589 12 -589 2 0 -5
-5 -5 -12 -1 -6 4 -37 7 -68 7 l-56 -1 -38 102 c-20 55 -47 126 -59 156 -12
30 -22 58 -23 63 -1 4 -3 9 -4 12 -1 3 -3 8 -4 13 -1 4 -4 12 -7 17 -4 6 -14
35 -24 65 -10 30 -20 60 -24 65 -3 6 -6 15 -7 20 -2 9 -64 175 -81 215 -3 8
-7 20 -9 25 -1 6 -8 24 -15 40 -6 17 -13 37 -15 45 -2 8 -7 23 -12 35 -5 11
-18 45 -30 75 -38 106 -64 175 -75 205 -7 17 -12 32 -13 35 0 3 -6 19 -13 35
-6 17 -19 50 -27 75 -9 25 -21 55 -26 66 -8 17 -15 1840 -9 2224 l1 45 113 1
c102 0 167 5 253 18 83 13 205 70 260 123 51 49 106 147 118 215 3 13 5 23 6
23 10 0 24 200 24 340 0 141 -4 184 -19 245 -9 37 -11 42 -24 75 -26 65 -36
85 -43 85 -5 0 -8 5 -8 11 0 7 -19 35 -42 64 -67 82 -181 161 -298 207 -14 5
-25 8 -25 7 0 -1 -10 3 -23 10 -22 12 -38 16 -92 27 -14 2 -32 7 -40 10 -17 7
-48 13 -105 19 -22 2 -40 5 -40 5 0 4 -70 10 -137 12 -43 2 -78 7 -78 12 0 5
-6 3 -13 -3 -8 -6 -16 -9 -19 -6 -2 3 -61 5 -129 5 -128 0 -148 0 -174 0 -8 1
-39 1 -67 1 -29 -1 -68 0 -85 2 -18 2 -33 1 -33 -2 0 -3 -16 -7 -36 -7 -32 -1
-76 -32 -80 -56 -1 -5 -3 -11 -4 -15 -1 -5 -3 -1144 -4 -2533 l-1 -2525 -23 1
c-12 1 -22 -3 -22 -8 0 -5 -5 -6 -11 -2 -16 9 -101 10 -117 1 -6 -5 -12 -5
-12 0 0 4 -36 8 -80 8 -44 0 -80 -4 -80 -8 0 -5 -5 -5 -11 -1 -16 9 -109 11
-109 1 0 -5 -5 -5 -11 -2 -15 10 -589 12 -589 2 0 -5 -5 -5 -12 -1 -6 4 -37 7
-67 7 l-57 0 1 216 c1 119 -3 222 -8 229 -5 7 -6 12 0 12 4 0 7 24 6 53 -2 28
-3 57 -3 62 0 6 1 52 3 103 1 56 -2 92 -8 92 -7 0 -7 3 0 8 12 9 15 112 2 112
-4 0 -5 6 0 12 11 18 11 171 0 186 -6 7 -6 12 0 12 4 0 7 24 6 53 -2 28 -3 57
-3 62 0 6 1 52 3 103 1 56 -2 92 -8 92 -7 0 -7 3 0 8 12 9 15 112 2 112 -4 0
-5 6 0 12 11 18 11 171 0 186 -6 7 -6 12 0 12 4 0 7 24 6 53 -2 28 -3 57 -3
62 0 6 1 52 3 103 1 56 -2 92 -8 92 -7 0 -7 3 0 8 12 9 15 112 2 112 -4 0 -5
6 0 12 11 18 11 171 0 186 -6 7 -6 12 0 12 4 0 7 24 6 53 -2 28 -3 57 -3 62 0
6 1 52 3 103 1 56 -2 92 -8 92 -7 0 -7 3 0 8 12 9 15 112 2 112 -4 0 -5 6 -1
12 12 19 11 228 -1 228 -7 0 -7 3 0 8 12 8 13 91 2 110 -5 6 -4 12 0 12 5 0 7
24 6 53 -2 28 -3 57 -3 62 0 10 0 86 1 115 0 23 0 583 -1 600 0 8 1 38 3 65 1
28 -2 53 -8 57 -7 5 -6 8 1 8 6 0 9 20 7 53 -4 60 -4 55 0 125 1 28 -1 52 -6
52 -4 0 -5 6 0 13 12 19 10 581 -2 589 -7 5 -7 8 0 8 12 0 13 89 1 108 -4 7
-3 12 1 12 5 0 7 24 6 53 -2 28 -3 57 -3 62 0 6 0 30 0 55 0 25 0 52 0 60 0 8
1 75 3 148 1 83 -2 132 -8 132 -7 0 -7 3 0 8 12 8 13 91 2 110 -5 6 -4 12 0
12 5 0 7 24 6 53 -4 71 -4 66 0 120 1 27 -2 51 -7 54 -5 4 -2 9 7 12 12 5
2110 6 2162 2z m-140 -1065 c57 -8 90 -14 90 -16 0 -1 11 -3 25 -4 84 -9 246
-76 321 -135 48 -37 119 -129 119 -153 0 -8 3 -18 8 -22 4 -4 8 -12 8 -17 1
-5 2 -10 4 -11 14 -18 19 -305 6 -413 -7 -67 -12 -100 -15 -100 -2 0 -4 -11
-7 -24 -8 -45 -57 -100 -114 -128 -30 -15 -59 -28 -65 -29 -5 -1 -28 -5 -50
-9 -22 -4 -131 -8 -242 -10 -216 -2 -237 -7 -264 -57 -9 -17 -12 -311 -12
-1228 l0 -1205 37 -100 c21 -55 39 -104 41 -110 3 -13 15 -45 26 -70 13 -31
87 -238 91 -255 2 -8 6 -17 10 -20 3 -3 8 -14 10 -25 1 -11 5 -22 8 -25 3 -3
17 -39 31 -80 21 -60 190 -516 238 -643 11 -27 10 -28 -19 -23 -17 2 -30 0
-30 -5 0 -6 -5 -7 -11 -3 -16 10 -209 11 -209 1 0 -5 -5 -5 -11 -1 -16 9 -109
11 -109 1 0 -5 -5 -5 -11 -1 -16 9 -109 11 -109 1 0 -5 -5 -5 -11 -1 -16 9
-109 11 -109 1 0 -5 -5 -5 -11 -1 -7 4 -71 7 -143 8 l-131 1 -1 2450 c0 1348
3 2455 8 2461 9 12 511 12 603 0z m2279 -3226 c15 -36 38 -89 52 -118 13 -29
24 -55 24 -58 0 -5 53 -134 85 -209 8 -16 29 -68 48 -115 19 -47 41 -101 49
-120 23 -53 31 -74 33 -80 0 -3 9 -20 18 -37 10 -18 15 -33 12 -33 -4 0 1 -12
9 -27 9 -16 44 -98 79 -183 35 -85 67 -164 72 -175 5 -11 9 -22 10 -25 4 -11
27 -67 40 -95 23 -50 95 -224 95 -228 0 -3 8 -22 17 -43 9 -22 16 -42 15 -46
-1 -5 2 -8 8 -8 6 0 9 -3 8 -7 -1 -5 6 -25 15 -47 9 -21 17 -41 17 -44 0 -3 9
-24 19 -46 11 -23 63 -147 116 -276 53 -129 104 -249 112 -267 8 -17 16 -37
17 -45 1 -7 10 -29 18 -48 25 -53 41 -92 108 -255 35 -82 69 -166 78 -185 8
-19 16 -37 17 -40 10 -29 18 -48 26 -62 5 -10 9 -21 9 -26 0 -5 -562 -8 -1248
-8 l-1249 0 -52 140 c-69 186 -80 214 -146 391 -31 83 -57 158 -58 168 -1 9
-4 17 -7 17 -4 0 -14 26 -24 58 -10 31 -26 74 -36 94 -11 24 -14 40 -8 44 5 4
358 6 783 6 l772 1 1 1056 c0 581 1 1065 2 1076 1 17 3 16 9 -5 5 -14 20 -54
35 -90z"/>
</g>
</svg>
