<?xml version="1.0" standalone="no"?>
<!DOCTYPE svg PUBLIC "-//W3C//DTD SVG 20010904//EN"
 "http://www.w3.org/TR/2001/REC-SVG-20010904/DTD/svg10.dtd">
<svg version="1.0" xmlns="http://www.w3.org/2000/svg"
 width="1000.000000pt" height="1000.000000pt" viewBox="0 0 1000.000000 1000.000000"
 preserveAspectRatio="xMidYMid meet">
<metadata>
Created by potrace 1.11, written by Peter Selinger 2001-2013
</metadata>
<g transform="translate(0.000000,1000.000000) scale(0.100000,-0.100000)"
fill="#000000" stroke="none">
<path d="M4738 9995 c-2 -1 -52 -6 -113 -9 -60 -4 -119 -9 -130 -11 -11 -2
-47 -7 -80 -10 -33 -3 -69 -7 -80 -9 -11 -2 -42 -7 -70 -10 -77 -11 -313 -55
-380 -71 -33 -9 -70 -17 -82 -19 -35 -7 -168 -45 -293 -83 -595 -182 -1195
-507 -1685 -911 -212 -175 -459 -416 -615 -602 -25 -29 -49 -58 -55 -64 -38
-42 -140 -174 -233 -305 -278 -389 -509 -844 -662 -1301 -51 -152 -119 -394
-134 -470 -2 -14 -14 -68 -25 -120 -11 -52 -25 -124 -31 -160 -5 -36 -12 -76
-14 -90 -6 -35 -15 -106 -22 -170 -3 -30 -7 -66 -10 -80 -24 -154 -25 -865 0
-995 2 -11 7 -51 11 -90 4 -38 9 -77 10 -86 2 -9 6 -40 10 -70 3 -30 13 -85
20 -124 8 -38 17 -86 20 -105 11 -65 55 -252 81 -344 14 -50 31 -113 39 -141
23 -83 109 -321 166 -460 125 -306 382 -770 541 -980 5 -5 40 -53 79 -105 343
-455 744 -836 1215 -1152 464 -312 998 -552 1531 -688 84 -22 165 -42 179 -44
15 -3 50 -10 78 -16 89 -18 99 -20 191 -35 104 -16 140 -21 215 -30 30 -4 69
-8 85 -10 211 -26 858 -26 1005 -1 14 3 52 7 85 10 33 3 69 8 81 10 12 2 45 7
75 11 135 16 495 94 610 131 25 8 56 16 68 19 52 10 361 120 498 177 357 148
750 370 1043 588 76 56 217 167 230 180 3 3 37 32 75 65 423 361 809 832 1095
1335 40 72 188 367 224 450 108 247 245 659 282 850 3 14 9 41 14 60 24 89 71
367 85 500 3 30 8 69 10 85 27 196 27 787 0 1010 -2 17 -6 57 -10 89 -3 32 -7
62 -9 65 -2 3 -7 36 -10 74 -4 37 -9 73 -11 80 -2 6 -7 29 -10 50 -10 70 -50
253 -89 412 -12 47 -34 122 -73 245 -171 545 -491 1146 -840 1580 -631 785
-1431 1343 -2363 1650 -133 44 -349 105 -410 116 -14 3 -33 7 -42 10 -9 3 -25
6 -35 8 -10 2 -52 11 -93 20 -63 13 -170 31 -300 51 -14 2 -74 9 -135 15 -60
6 -128 13 -150 16 -43 5 -651 14 -657 9z"/>
</g>
</svg>
